<svg xmlns="http://www.w3.org/2000/svg" viewBox="0 0 469 306" role="img" aria-label="WTPeSTORE stacked logo"><rect width="469" height="306" rx="30" fill="#131921"/><g transform="translate(159.306640625,46) scale(1.25)">
<defs><linearGradient id="sqS" x1="0" y1="0" x2="1" y2="1"><stop offset="0" stop-color="#19c37d"/><stop offset="1" stop-color="#0aa2c0"/></linearGradient></defs>
<rect width="120" height="120" rx="28" fill="url(#sqS)"/>
<g transform="translate(23,20) scale(0.62)">
<path d="M60 10 C60 10 98 58 98 80 A38 38 0 0 1 22 80 C22 58 60 10 60 10 Z" fill="#ffffff"/>
<path d="M40 78 a20 20 0 0 0 20 20" fill="none" stroke="#0aa2c0" stroke-width="5" stroke-linecap="round"/>
<path d="M37 58h46M43 70h34" stroke="#19c37d" stroke-width="4.4" stroke-linecap="round" opacity="0.9"/>
</g></g>
<path d="M9 1328H229Q264 1328 286.5 1312.0Q309 1296 317 1270L513 503Q530 443 545 364Q553 403 561.0 438.5Q569 474 580 504L812 1270Q820 1293 843.0 1310.5Q866 1328 898 1328H975Q1010 1328 1031.5 1312.5Q1053 1297 1062 1270L1294 503Q1304 474 1312.5 439.5Q1321 405 1329 367Q1336 405 1343.5 439.0Q1351 473 1359 502L1555 1270Q1562 1293 1585.5 1310.5Q1609 1328 1641 1328H1847L1453 0H1215L952 883Q946 900 940.5 921.0Q935 942 930 965Q925 942 919.0 921.0Q913 900 908 883L640 0H403Z" transform="translate(50.00,276.00) scale(0.03516,-0.03516)" fill="#ffffff"/>
<path d="M996 1328V1114H638V0H376V1114H18V1328Z" transform="translate(115.25,276.00) scale(0.03516,-0.03516)" fill="#ffffff"/>
<path d="M378 461V0H115V1328H542Q671 1328 764.0 1296.0Q857 1264 918.0 1207.5Q979 1151 1008.0 1073.0Q1037 995 1037 902Q1037 804 1006.5 723.0Q976 642 914.5 584.0Q853 526 760.0 493.5Q667 461 542 461ZM378 665H542Q662 665 718.0 728.5Q774 792 774 902Q774 1005 717.0 1065.5Q660 1126 542 1126H378Z" transform="translate(150.90,276.00) scale(0.03516,-0.03516)" fill="#ffffff"/>
<path d="M964 754Q964 688 934.5 633.5Q905 579 830.0 535.5Q755 492 625.5 461.0Q496 430 297 412Q297 294 352.5 237.5Q408 181 522 181Q594 181 640.5 197.0Q687 213 720.0 232.5Q753 252 778.5 268.0Q804 284 835 284Q862 284 881 262L947 184Q891 132 838.0 94.5Q785 57 728.5 32.5Q672 8 609.5 -3.5Q547 -15 474 -15Q378 -15 299.5 15.0Q221 45 165.5 100.5Q110 156 79.5 233.5Q49 311 49 407Q49 524 89.5 632.5Q130 741 204.5 824.0Q279 907 384.5 957.0Q490 1007 621 1007Q707 1007 771.5 984.5Q836 962 878.5 925.5Q921 889 942.5 844.0Q964 799 964 754ZM609 831Q555 831 508.5 812.5Q462 794 425.0 760.5Q388 727 361.0 679.5Q334 632 318 575Q452 591 534.0 609.5Q616 628 661.0 649.5Q706 671 721.0 695.5Q736 720 736 748Q736 763 729.0 777.5Q722 792 706.5 804.0Q691 816 667.0 823.5Q643 831 609 831Z" transform="translate(189.22,276.00) scale(0.03516,-0.03516)" fill="#19c37d"/>
<path d="M821 1078Q811 1058 797.5 1049.5Q784 1041 764 1041Q745 1041 723.0 1055.0Q701 1069 671.5 1085.5Q642 1102 603.0 1116.0Q564 1130 513 1130Q423 1130 377.5 1086.0Q332 1042 332 971Q332 926 356.5 896.5Q381 867 421.5 845.5Q462 824 513.5 807.0Q565 790 619.0 770.5Q673 751 724.5 724.5Q776 698 816.5 658.0Q857 618 881.5 560.0Q906 502 906 419Q906 329 876.5 250.0Q847 171 790.0 112.5Q733 54 650.5 20.0Q568 -14 462 -14Q402 -14 342.5 -1.5Q283 11 228.0 34.0Q173 57 124.0 89.0Q75 121 38 161L116 286Q125 301 140.5 310.0Q156 319 174 319Q198 319 223.5 300.5Q249 282 283.0 259.5Q317 237 362.0 218.5Q407 200 469 200Q559 200 609.0 246.0Q659 292 659 382Q659 433 634.5 465.0Q610 497 570.0 518.5Q530 540 478.5 555.5Q427 571 373.5 589.0Q320 607 268.5 632.5Q217 658 177.0 700.0Q137 742 112.5 804.0Q88 866 88 958Q88 1031 116.0 1100.5Q144 1170 198.0 1224.0Q252 1278 330.5 1310.5Q409 1343 510 1343Q624 1343 721.5 1306.0Q819 1269 888 1202Z" transform="translate(224.59,276.00) scale(0.03516,-0.03516)" fill="#ff9900"/>
<path d="M996 1328V1114H638V0H376V1114H18V1328Z" transform="translate(258.62,276.00) scale(0.03516,-0.03516)" fill="#ff9900"/>
<path d="M1338 665Q1338 519 1292.0 394.5Q1246 270 1161.5 179.0Q1077 88 958.0 37.0Q839 -14 694 -14Q549 -14 430.0 37.0Q311 88 226.0 179.0Q141 270 94.5 394.5Q48 519 48 665Q48 810 94.5 934.5Q141 1059 226.0 1149.5Q311 1240 430.0 1291.5Q549 1343 694 1343Q839 1343 958.0 1291.5Q1077 1240 1161.5 1149.0Q1246 1058 1292.0 934.0Q1338 810 1338 665ZM1070 665Q1070 771 1044.0 855.0Q1018 939 969.5 998.0Q921 1057 851.5 1088.5Q782 1120 694 1120Q606 1120 536.0 1088.5Q466 1057 417.5 998.0Q369 939 343.0 855.0Q317 771 317 665Q317 558 343.0 473.5Q369 389 417.5 330.5Q466 272 536.0 241.0Q606 210 694 210Q782 210 851.5 241.0Q921 272 969.5 330.5Q1018 389 1044.0 473.5Q1070 558 1070 665Z" transform="translate(294.27,276.00) scale(0.03516,-0.03516)" fill="#ff9900"/>
<path d="M382 511V0H118V1328H518Q651 1328 746.0 1299.5Q841 1271 901.5 1220.0Q962 1169 990.0 1098.0Q1018 1027 1018 942Q1018 877 1000.0 818.5Q982 760 947.5 711.5Q913 663 863.0 625.5Q813 588 748 565Q773 551 795.0 531.5Q817 512 836 484L1133 0H896Q833 0 799 53L557 467Q542 491 523.5 501.0Q505 511 471 511ZM382 698H516Q580 698 626.5 715.0Q673 732 703.0 762.0Q733 792 747.5 833.5Q762 875 762 924Q762 1021 702.0 1073.5Q642 1126 518 1126H382Z" transform="translate(342.96,276.00) scale(0.03516,-0.03516)" fill="#ff9900"/>
<path d="M928 1328V1119H382V768H807V567H382V209H929L928 0H118V1328Z" transform="translate(383.49,276.00) scale(0.03516,-0.03516)" fill="#ff9900"/></svg>